# xmcd
#
# Track frame offsets: 
#        150
#        20844
#        41947
#        62490
#        80570
#        100045
#        119867
#        136295
#        154807
#        174360
#
# Disc length: 2562 seconds
#
# Revision: 1
# Processed by: cddbd v1.5.2PL0 Copyright (c) Steve Scherf et al.
# Submitted via: ExactAudioCopyFreeDBPlugin 1.0
#
DISCID=880a000a
DTITLE=김목경 - 김목경 2 Blues
DYEAR=1996
DGENRE=Blues
TTITLE0=처음 그리고 그 다음에
TTITLE1=Mr. Clapton
TTITLE2=이대로 가면
TTITLE3=추억의 광안리
TTITLE4=아침에 깨어보니
TTITLE5=그노래 그모습
TTITLE6=웃고있네
TTITLE7=내사랑은 락엔롤 같은 것
TTITLE8=내인생
TTITLE9=어느 60대 노부부의 이야기
EXTD=
EXTT0=
EXTT1=
EXTT2=
EXTT3=
EXTT4=
EXTT5=
EXTT6=
EXTT7=
EXTT8=
EXTT9=
PLAYORDER=
